<svg xmlns="http://www.w3.org/2000/svg" width="63.668" height="63.44" viewBox="0 0 63.668 63.44">
  <path id="Icon_Creating_a_Plan_Certainty" data-name="Icon_Creating a Plan_Certainty" d="M-12723.793-334.128l-10.295-6.077-.018-.012-.031-.02c-.019-.013-.035-.026-.053-.039l-.026-.02c-.021-.018-.042-.038-.062-.057l-.01-.009a.781.781,0,0,1-.066-.079s0,0,0,0,0,0-.006-.007a.6.6,0,0,1-.057-.089.1.1,0,0,1-.013-.02c-.017-.033-.033-.067-.048-.1l-.006-.018c-.012-.03-.021-.061-.029-.092l-.006-.025a1.026,1.026,0,0,1-.018-.109.04.04,0,0,1,0-.015c0-.033,0-.067,0-.1a.1.1,0,0,1,0-.023.9.9,0,0,1,.012-.114v-.008c.007-.034.016-.069.025-.1a.273.273,0,0,0,.009-.026,1.109,1.109,0,0,1,.043-.108l1.269-2.648a24.592,24.592,0,0,0-2.674-1.136,34.96,34.96,0,0,1-12.166,8.046.936.936,0,0,1-.343.065.936.936,0,0,1-.343-.065,34.916,34.916,0,0,1-12.166-8.046,24.6,24.6,0,0,0-2.674,1.136l1.269,2.648c.017.035.03.071.044.107,0,.009,0,.017.007.027a.747.747,0,0,1,.024.1.013.013,0,0,1,0,.008.639.639,0,0,1,.013.114v.023a.86.86,0,0,1,0,.1v.015c-.006.037-.012.073-.019.11a.208.208,0,0,0-.007.025.782.782,0,0,1-.029.092.122.122,0,0,0,0,.018c-.015.035-.032.069-.05.1a.065.065,0,0,1-.011.019.71.71,0,0,1-.059.09l0,.007,0,0a.832.832,0,0,1-.066.079l-.01.009c-.02.02-.041.04-.062.058a.289.289,0,0,1-.025.02.61.61,0,0,1-.053.039l-.031.02-.018.012-10.295,6.077a.922.922,0,0,1-.47.129.93.93,0,0,1-.461-.122.927.927,0,0,1-.466-.8v-5.726l-5.184-2.85a.93.93,0,0,1-.48-.772.934.934,0,0,1,.41-.81l6.345-4.245-.987-1.883a.929.929,0,0,1,.117-1.031,19.614,19.614,0,0,1,5.705-4.073,56.668,56.668,0,0,1-4.514-16.273.928.928,0,0,1,.8-1.04.928.928,0,0,1,1.04.8,53.841,53.841,0,0,0,4.641,16.383,1.048,1.048,0,0,1,.1.157,38.765,38.765,0,0,0,4.072,6.658c.084.109.168.219.253.326l.04.052A33.374,33.374,0,0,0-12748.367-339a33.07,33.07,0,0,0,11.732-8.053l.02-.021q.193-.207.385-.418l.066-.076q.168-.187.336-.378c.141-.162.279-.325.418-.49l.012-.015q1.068-1.279,2.035-2.689l.141-.207c.109-.161.217-.323.324-.486.016-.023.029-.047.045-.07q.308-.474.6-.962l.184-.3.249-.424c.081-.141.162-.284.243-.427.089-.16.179-.319.267-.481.105-.193.211-.388.314-.584l.164-.319c.1-.189.193-.379.287-.571.043-.088.088-.175.131-.264a50.083,50.083,0,0,0,3.65-10.468,68.579,68.579,0,0,0,1.6-19.112,50.832,50.832,0,0,1-17.071-5.287,43.674,43.674,0,0,1-6.133-3.791,43.674,43.674,0,0,1-6.133,3.791,50.8,50.8,0,0,1-17.071,5.287,66.5,66.5,0,0,0,.1,9.292.924.924,0,0,1-.852,1,.924.924,0,0,1-.994-.851,62.931,62.931,0,0,1-.035-10.367.926.926,0,0,1,.826-.827,47.658,47.658,0,0,0,23.568-9.208.927.927,0,0,1,1.188,0,38.871,38.871,0,0,0,6.44,4.059,48.847,48.847,0,0,0,17.129,5.149.927.927,0,0,1,.826.826,68.216,68.216,0,0,1-1.579,20.465,52.662,52.662,0,0,1-3.366,9.967,19.581,19.581,0,0,1,5.7,4.073.926.926,0,0,1,.116,1.031l-.986,1.884,6.344,4.245a.929.929,0,0,1,.41.81.926.926,0,0,1-.479.772l-5.183,2.85v5.726a.927.927,0,0,1-.468.8.926.926,0,0,1-.459.122A.921.921,0,0,1-12723.793-334.128Zm-3.818-7.326a.7.7,0,0,1-.061.1c0,.006-.01.012-.014.019-.02.025-.039.05-.059.073l-.029.029c-.018.018-.035.036-.055.053s-.025.019-.037.029-.037.029-.057.042l-.041.025a.678.678,0,0,1-.061.032l-.045.021-.064.025-.047.015-.068.016-.029.007-2.688.457,6.716,3.965V-341.2a.928.928,0,0,1,.48-.812l4.328-2.381-4.911-3.287Zm-49.681-2.938,4.329,2.38a.928.928,0,0,1,.479.812v4.651l6.717-3.965-2.688-.456c-.021,0-.04-.01-.061-.015l-.013,0a.919.919,0,0,1-.1-.029l-.015-.006c-.029-.011-.058-.025-.087-.039l-.018-.01c-.027-.015-.053-.03-.078-.046l-.023-.017c-.021-.016-.043-.033-.064-.05a.388.388,0,0,1-.031-.03c-.017-.016-.034-.032-.049-.049a.674.674,0,0,1-.045-.055c-.008-.012-.02-.023-.026-.035a.888.888,0,0,1-.061-.1l-3.259-6.224Zm45.55,1.621-.266.555,1.473-.25-.068-.05-.145-.1-.1-.066-.156-.108-.1-.066-.173-.114-.066-.042c-.066-.043-.133-.085-.2-.128l-.018-.01Zm-33.447-.372c-.07.043-.137.086-.2.129l-.066.042-.172.114-.1.067c-.055.036-.1.072-.156.107l-.1.066-.146.1-.066.048,1.474.25-.449-.937Zm35.967-11.332-.129.25c-.129.245-.26.488-.391.728-.055.1-.111.2-.167.3-.1.18-.2.359-.307.537-.091.158-.185.316-.278.472-.078.134-.16.267-.24.4-.121.2-.242.388-.364.581-.073.115-.146.231-.222.345-.092.142-.186.283-.279.424-.084.125-.17.249-.254.373-.07.1-.139.206-.21.307q-.8,1.143-1.673,2.2a.11.11,0,0,0-.011.015c-.12.145-.239.289-.36.432l-.145.168c-.078.092-.156.185-.236.276a.039.039,0,0,0-.006.008,25.048,25.048,0,0,1,2.984,1.389l.008,0,.023.013.01.006.117.065.211.12.123.071.014.008.018.011c.107.063.211.125.313.187l.063.037.187.117.04.025,0,0a16.977,16.977,0,0,1,1.689,1.216l4.234-8.089a20.706,20.706,0,0,0-4.674-3.176C-12729.161-354.591-12729.191-354.533-12729.223-354.476Zm-43.055,3,1.206,2.3,3.03,5.79a16.893,16.893,0,0,1,1.688-1.216s0,0,0,0l.039-.025.188-.117.049-.03c.105-.065.213-.129.324-.195l.02-.011.014-.008.123-.071.212-.12.115-.065.009-.006h0l.024-.013.007,0a24.854,24.854,0,0,1,2.985-1.389c-.131-.151-.261-.3-.392-.457-.087-.1-.173-.207-.259-.311l-.152-.184q-.146-.18-.291-.362l-.082-.1a38.962,38.962,0,0,1-3.269-4.868c-.03-.052-.058-.105-.087-.157q-.2-.35-.389-.707l-.152-.281c-.1-.186-.2-.373-.291-.56A20.506,20.506,0,0,0-12772.277-351.476Zm23.568,7.417a26.877,26.877,0,0,1-9.5-6.339.928.928,0,0,1,.023-1.31.927.927,0,0,1,1.311.025,24.99,24.99,0,0,0,8.51,5.764c6.754-2.8,15.064-9.555,17.126-25.849a.928.928,0,0,1,1.036-.8.926.926,0,0,1,.8,1.036,41.562,41.562,0,0,1-4.727,15.182,27.152,27.152,0,0,1-13.895,12.3.938.938,0,0,1-.344.066A.928.928,0,0,1-12748.709-344.059Zm-11.988-9.314c-4.48-6.175-6.125-13.652-6.715-18.836a50.167,50.167,0,0,1-.211-9.867.927.927,0,0,1,.826-.827,36.192,36.192,0,0,0,17.837-6.965.927.927,0,0,1,1.188,0,36.2,36.2,0,0,0,17.835,6.964.927.927,0,0,1,.827.827,46.6,46.6,0,0,1,.056,6.721.927.927,0,0,1-.978.873.927.927,0,0,1-.873-.977,49.394,49.394,0,0,0,.007-5.688,38.038,38.038,0,0,1-17.469-6.835,38.032,38.032,0,0,1-17.467,6.835,51.931,51.931,0,0,0,.268,8.773c.568,4.951,2.133,12.077,6.367,17.913a.925.925,0,0,1-.205,1.294.92.92,0,0,1-.543.177A.922.922,0,0,1-12760.7-353.373Zm7.555-6.312-5.273-5.273a3.248,3.248,0,0,1,0-4.589,3.25,3.25,0,0,1,4.59,0l2.979,2.979,8.252-8.252a3.25,3.25,0,0,1,4.59,0,3.25,3.25,0,0,1,0,4.589l-10.548,10.547a3.221,3.221,0,0,1-2.294.95A3.224,3.224,0,0,1-12753.143-359.686Zm-3.963-8.552a1.393,1.393,0,0,0,0,1.969l5.273,5.273a1.381,1.381,0,0,0,.984.408,1.386,1.386,0,0,0,.984-.408l10.547-10.546a1.394,1.394,0,0,0,0-1.969,1.394,1.394,0,0,0-1.969,0l-8.908,8.907a.926.926,0,0,1-.654.271.927.927,0,0,1-.656-.271l-3.633-3.634a1.389,1.389,0,0,0-.984-.407A1.388,1.388,0,0,0-12757.105-368.238Z" transform="translate(12780.201 397.24)" fill="#00ce3f" stroke="#00ce3f" stroke-width="0.4"/>
</svg>
