<svg xmlns="http://www.w3.org/2000/svg" width="63.249" height="63.25" viewBox="0 0 63.249 63.25">
  <path id="Icon_Creating_a_Plan_Costs" data-name="Icon_Creating a Plan_Costs" d="M-12755.376-334a6.2,6.2,0,0,1-4.074-1.527l-1.464-1.276a3.7,3.7,0,0,1-3.582,2.8h-11.812a3.7,3.7,0,0,1-3.691-3.691v-20.056a3.7,3.7,0,0,1,3.691-3.691h11.813a3.69,3.69,0,0,1,3.047,1.611l5.229-5.23-6.045-22.56a1.23,1.23,0,0,1,.87-1.507l11.663-3.125v-3.519a1.23,1.23,0,0,1,1.23-1.231l30.269,0a1.234,1.234,0,0,1,.871.36,1.236,1.236,0,0,1,.36.87v60.539a1.231,1.231,0,0,1-1.231,1.23Zm-22.163-23.748v20.056a1.232,1.232,0,0,0,1.23,1.231h11.813a1.232,1.232,0,0,0,1.23-1.231v-20.056a1.232,1.232,0,0,0-1.23-1.23h-4.676V-344.8a1.23,1.23,0,0,1-1.23,1.231,1.23,1.23,0,0,1-1.23-1.231v-14.174h-4.676A1.231,1.231,0,0,0-12777.539-357.748Zm49.669,19.564a4.147,4.147,0,0,1-.373,1.723h8.78v-58.078h-27.808v34.452h2.4V-384.58a1.23,1.23,0,0,1,1.23-1.231,3.317,3.317,0,0,0,3.313-3.313,1.231,1.231,0,0,1,1.23-1.231h11.452a1.231,1.231,0,0,1,1.23,1.231,3.317,3.317,0,0,0,3.313,3.313,1.23,1.23,0,0,1,1.23,1.231v4.924a1.23,1.23,0,0,1-1.23,1.231,1.23,1.23,0,0,1-1.23-1.231v-3.825a5.794,5.794,0,0,1-4.412-4.412h-9.255a5.794,5.794,0,0,1-4.412,4.412v23.4h6.727a5.9,5.9,0,0,1-3.575-5.415,5.9,5.9,0,0,1,5.889-5.889,5.9,5.9,0,0,1,5.889,5.889,5.9,5.9,0,0,1-3.576,5.415h1.979a4.188,4.188,0,0,1,4.184,4.183,4.162,4.162,0,0,1-.373,1.723h.041a4.171,4.171,0,0,1,.9.1v-14a1.23,1.23,0,0,1,1.23-1.23,1.23,1.23,0,0,1,1.23,1.23v15.6a4.158,4.158,0,0,1,.825,2.492,4.19,4.19,0,0,1-3.076,4.034,4.159,4.159,0,0,1,.444,1.872,4.189,4.189,0,0,1-4.184,4.184h-.387A4.146,4.146,0,0,1-12727.87-338.184Zm-32.935-18.808v17.018l2.971,2.592a3.741,3.741,0,0,0,2.458.921h23.322a1.724,1.724,0,0,0,1.723-1.722,1.724,1.724,0,0,0-1.723-1.723h-9.417a1.231,1.231,0,0,1-1.23-1.231,1.23,1.23,0,0,1,1.23-1.231h13.614a1.725,1.725,0,0,0,1.723-1.723,1.725,1.725,0,0,0-1.723-1.723h-13.614a1.23,1.23,0,0,1-1.23-1.231,1.231,1.231,0,0,1,1.23-1.231h16.247A1.725,1.725,0,0,0-12723.5-350a1.725,1.725,0,0,0-1.723-1.723h-16.247a1.23,1.23,0,0,1-1.23-1.23,1.23,1.23,0,0,1,1.23-1.231h12.4a1.724,1.724,0,0,0,1.723-1.723,1.724,1.724,0,0,0-1.723-1.723l-24.191,0a1.231,1.231,0,0,1-1.192-.925l-.975-3.812Zm1.235-30.074,5.779,21.568a1.241,1.241,0,0,1,.206.432l1.272,4.979h2.47l-4.8-17.761a1.227,1.227,0,0,1,.121-.935,1.23,1.23,0,0,1,.748-.574,3.317,3.317,0,0,0,2.343-4.058,1.224,1.224,0,0,1,.123-.934,1.231,1.231,0,0,1,.747-.573l.824-.221V-389.7Zm22.775,21.566a3.431,3.431,0,0,0,3.428,3.428,3.432,3.432,0,0,0,3.428-3.428,3.432,3.432,0,0,0-3.428-3.428A3.431,3.431,0,0,0-12736.794-365.5Zm-15.182-11.926,2.244,8.31V-379.5A5.763,5.763,0,0,1-12751.976-377.427Zm-19.3,38.144a1.236,1.236,0,0,1-.36-.87,1.241,1.241,0,0,1,.36-.87,1.238,1.238,0,0,1,.87-.361,1.238,1.238,0,0,1,.869.361,1.238,1.238,0,0,1,.361.87,1.237,1.237,0,0,1-.361.87,1.236,1.236,0,0,1-.869.361A1.238,1.238,0,0,1-12771.272-339.283Zm47.306-33.468a1.237,1.237,0,0,1-.361-.87,1.242,1.242,0,0,1,.361-.87,1.238,1.238,0,0,1,.869-.36,1.237,1.237,0,0,1,.87.36,1.234,1.234,0,0,1,.362.87,1.234,1.234,0,0,1-.362.87,1.235,1.235,0,0,1-.87.361A1.238,1.238,0,0,1-12723.967-372.751Z" transform="translate(12780.125 397.125)" fill="#00ce3f" stroke="#e5faeb" stroke-width="0.25"/>
</svg>
