<svg xmlns="http://www.w3.org/2000/svg" width="65" height="65" viewBox="0 0 65 65">
  <g id="Icon_Creating_a_Plan_Access_to_Funds" data-name="Icon_Creating a Plan_Access to Funds" transform="translate(-853 -272)">
    <circle id="Ellipse_30" data-name="Ellipse 30" cx="2.461" cy="2.461" r="2.461" transform="translate(899.035 296.379)" fill="#00ce3f" stroke="#e5faeb" stroke-width="1.5"/>
    <path id="Path_921" data-name="Path 921" d="M53.156,4.922h-3.2V2.461a2.461,2.461,0,1,0-4.922,0V4.922h-11.2V2.461a2.461,2.461,0,0,0-4.922,0V4.922H17.842V2.461a2.461,2.461,0,0,0-4.922,0V4.922H9.844A9.855,9.855,0,0,0,0,14.766V53.156A9.855,9.855,0,0,0,9.844,63H28.67a2.461,2.461,0,1,0,0-4.922H9.844a4.927,4.927,0,0,1-4.922-4.922V14.766A4.927,4.927,0,0,1,9.844,9.844H12.92V12.3a2.461,2.461,0,0,0,4.922,0V9.844H28.916V12.3a2.461,2.461,0,1,0,4.922,0V9.844h11.2V12.3a2.461,2.461,0,1,0,4.922,0V9.844h3.2a4.927,4.927,0,0,1,4.922,4.922V28.793a2.461,2.461,0,1,0,4.922,0V14.766A9.855,9.855,0,0,0,53.156,4.922Z" transform="translate(854 273)" fill="#00ce3f" stroke="#e5faeb" stroke-width="2"/>
    <path id="Path_922" data-name="Path 922" d="M284.889,270a14.889,14.889,0,1,0,14.889,14.889A14.905,14.905,0,0,0,284.889,270Zm0,24.855a9.967,9.967,0,1,1,9.967-9.967A9.978,9.978,0,0,1,284.889,294.855Z" transform="translate(617.223 36.222)" fill="#00ce3f" stroke="#e5faeb" stroke-width="2"/>
    <path id="Path_923" data-name="Path 923" d="M377.029,335.045h-1.107v-2.584a2.461,2.461,0,0,0-4.922,0v5.045a2.461,2.461,0,0,0,2.461,2.461h3.568a2.461,2.461,0,0,0,0-4.922Z" transform="translate(528.65 -16.395)" fill="#00ce3f" stroke="#e5faeb" stroke-width="2"/>
    <circle id="Ellipse_31" data-name="Ellipse 31" cx="2.461" cy="2.461" r="2.461" transform="translate(888.33 296.379)" fill="#00ce3f" stroke="#e5faeb" stroke-width="1.5"/>
    <circle id="Ellipse_32" data-name="Ellipse 32" cx="2.461" cy="2.461" r="2.461" transform="translate(877.625 307.084)" fill="#00ce3f" stroke="#e5faeb" stroke-width="1.5"/>
    <circle id="Ellipse_33" data-name="Ellipse 33" cx="2.461" cy="2.461" r="2.461" transform="translate(866.92 296.379)" fill="#00ce3f" stroke="#e5faeb" stroke-width="1.5"/>
    <circle id="Ellipse_34" data-name="Ellipse 34" cx="2.461" cy="2.461" r="2.461" transform="translate(866.92 307.084)" fill="#00ce3f" stroke="#e5faeb" stroke-width="1.5"/>
    <circle id="Ellipse_35" data-name="Ellipse 35" cx="2.461" cy="2.461" r="2.461" transform="translate(866.92 317.789)" fill="#00ce3f" stroke="#e5faeb" stroke-width="1.5"/>
    <circle id="Ellipse_36" data-name="Ellipse 36" cx="2.461" cy="2.461" r="2.461" transform="translate(877.625 317.789)" fill="#00ce3f" stroke="#e5faeb" stroke-width="1.5"/>
    <circle id="Ellipse_37" data-name="Ellipse 37" cx="2.461" cy="2.461" r="2.461" transform="translate(877.625 296.379)" fill="#00ce3f" stroke="#e5faeb" stroke-width="1.5"/>
  </g>
</svg>
