<svg xmlns="http://www.w3.org/2000/svg" width="63.007" height="63" viewBox="0 0 63.007 63">
  <path id="Icon_Creating_a_Plan_Inheritance" data-name="Icon_Creating a Plan_Inheritance" d="M-12742.122-337.558c-.338-.236-.654-.455-.946-.653a8.947,8.947,0,0,1-3.8-5.934l-.428-2.549a4.2,4.2,0,0,1-3.294-4.1v-7.352a16.819,16.819,0,0,1,16.8-16.8,16.818,16.818,0,0,1,16.8,16.8v7.352a4.213,4.213,0,0,1-3.289,4.1l-.428,2.549a8.972,8.972,0,0,1-3.8,5.934c-.3.2-.611.421-.945.653-2.132,1.5-5.049,3.56-8.335,3.56S-12740-336.056-12742.122-337.558Zm7.981-22.584a23.888,23.888,0,0,1-9.144,3.132,2.92,2.92,0,0,0-2.058,3.061,1.05,1.05,0,0,1-1.051,1.051,2.1,2.1,0,0,0-2.1,2.1,2.1,2.1,0,0,0,2.1,2.1,1.048,1.048,0,0,1,1.033.879l.56,3.327a6.845,6.845,0,0,0,2.906,4.54c.3.205.633.434.977.68,2.007,1.414,4.506,3.176,7.123,3.176s5.118-1.761,7.126-3.176c.347-.246.67-.471.977-.68a6.848,6.848,0,0,0,2.906-4.54l.556-3.327a1.052,1.052,0,0,1,1.037-.879,2.1,2.1,0,0,0,2.1-2.1,2.1,2.1,0,0,0-2.1-2.1,1.048,1.048,0,0,1-1.051-1.051,2.923,2.923,0,0,0-2.058-3.061,23.945,23.945,0,0,1-9.144-3.132.624.624,0,0,0-.349-.106A.623.623,0,0,0-12734.141-360.142Zm1.812-1.785a21.855,21.855,0,0,0,8.324,2.836,4.786,4.786,0,0,1,3.789,4.21,4.127,4.127,0,0,1,1.122.461v-3.728a14.7,14.7,0,0,0-14.7-14.7,14.7,14.7,0,0,0-14.7,14.7v3.725a4.211,4.211,0,0,1,1.125-.465,4.779,4.779,0,0,1,3.789-4.2,21.837,21.837,0,0,0,8.32-2.836,2.735,2.735,0,0,1,1.467-.427A2.72,2.72,0,0,1-12732.329-361.927Zm-29.814,24.78a3.151,3.151,0,0,1-3.149-3.149,3.15,3.15,0,0,1,1.364-2.593l-9.884-9.884a3.144,3.144,0,0,1-.694-3.432,3.145,3.145,0,0,1,2.913-1.943,3.122,3.122,0,0,1,2.23.936l9.88,9.881a3.148,3.148,0,0,1,3.526-1.219,3.16,3.16,0,0,1,2.216,3v5.25a3.151,3.151,0,0,1-3.152,3.149Zm-1.052-3.149a1.05,1.05,0,0,0,1.052,1.047h5.25a1.049,1.049,0,0,0,1.051-1.047v-5.25a1.052,1.052,0,0,0-1.051-1.051,1.052,1.052,0,0,0-1.051,1.051v.189a1.05,1.05,0,0,1-.646.97,1.062,1.062,0,0,1-1.146-.226l-11.113-11.12a1.042,1.042,0,0,0-1.475,0,1.042,1.042,0,0,0,0,1.475l11.117,11.124a1.042,1.042,0,0,1,.226,1.142,1.048,1.048,0,0,1-.97.65h-.188A1.05,1.05,0,0,0-12763.2-340.3Zm-7.3-22.469c-.327-.229-.637-.448-.926-.643a8.98,8.98,0,0,1-3.8-5.937l-.428-2.549a4.2,4.2,0,0,1-3.272-3.863,17.439,17.439,0,0,1-1.072-6.54,28.018,28.018,0,0,1,.432-4.762,5.578,5.578,0,0,1,2.522-3.772,6.083,6.083,0,0,1,4.155-.9,13.6,13.6,0,0,1,10.747-5.264,13.6,13.6,0,0,1,10.746,5.264,6.111,6.111,0,0,1,4.159.9,5.581,5.581,0,0,1,2.52,3.782,28.189,28.189,0,0,1,.421,4.752,17.6,17.6,0,0,1-1.071,6.54,4.2,4.2,0,0,1-3.277,3.863l-.424,2.549a8.977,8.977,0,0,1-3.8,5.934c-.293.2-.6.414-.929.643-2.136,1.509-5.065,3.573-8.355,3.573S-12768.36-361.26-12770.5-362.766Zm-3.209-10.255.559,3.327a6.852,6.852,0,0,0,2.9,4.543c.3.2.623.428.96.667,2.014,1.421,4.523,3.186,7.146,3.186s5.133-1.765,7.146-3.186c.34-.239.659-.465.96-.667a6.878,6.878,0,0,0,2.9-4.543l.557-3.327a1.049,1.049,0,0,1,1.036-.876,2.1,2.1,0,0,0,2.122-2.078,2.1,2.1,0,0,0-2.078-2.122l-2.233.313a4.705,4.705,0,0,1-4.71,3.88,4.709,4.709,0,0,1-4.581-4.038,3.843,3.843,0,0,0-2.239,0,4.714,4.714,0,0,1-4.58,4.031,4.712,4.712,0,0,1-4.715-3.873l-2.233-.317a2.1,2.1,0,0,0-2.074,2.125,2.1,2.1,0,0,0,2.121,2.078A1.049,1.049,0,0,1-12773.708-373.021Zm14.716-5.6a2.625,2.625,0,0,0,2.624,2.623,2.625,2.625,0,0,0,2.627-2.623,2.626,2.626,0,0,0-2.627-2.627A2.626,2.626,0,0,0-12758.992-378.621Zm-11.551,0a2.624,2.624,0,0,0,2.624,2.623,2.625,2.625,0,0,0,2.626-2.623,2.625,2.625,0,0,0-2.626-2.627A2.625,2.625,0,0,0-12770.543-378.621Zm22.049-4.725v3.284a4.108,4.108,0,0,1,1.849,1.037,18.737,18.737,0,0,0,.253-3.273,26.025,26.025,0,0,0-.395-4.395,3.5,3.5,0,0,0-1.589-2.371,4.016,4.016,0,0,0-1.675-.593A13.547,13.547,0,0,1-12748.494-383.346Zm-27.413-5.718a3.509,3.509,0,0,0-1.593,2.364,25.6,25.6,0,0,0-.391,4.4,18.546,18.546,0,0,0,.249,3.273,4.134,4.134,0,0,1,1.849-1.037v-3.284a13.56,13.56,0,0,1,1.559-6.311A3.962,3.962,0,0,0-12775.907-389.064Zm19.631,5.718a4.692,4.692,0,0,1,4.441,3.465l1.242-.178v-3.287a11.563,11.563,0,0,0-11.551-11.551,11.561,11.561,0,0,0-11.548,11.551v3.287l1.239.178a4.7,4.7,0,0,1,4.442-3.465,4.69,4.69,0,0,1,4.569,3.294,5.913,5.913,0,0,1,2.594,0,4.691,4.691,0,0,1,4.478-3.295Zm-10.066,17.849a2.1,2.1,0,0,1-2.1-2.1v-1.047a4.2,4.2,0,0,1,4.2-4.2h4.2a4.2,4.2,0,0,1,4.2,4.2v1.047a2.1,2.1,0,0,1-2.1,2.1Zm0-3.149v1.047h8.4v-1.047a2.1,2.1,0,0,0-2.1-2.1h-4.2A2.1,2.1,0,0,0-12766.343-368.646Zm40.951-7.352a3.153,3.153,0,0,1-3-2.216,3.149,3.149,0,0,1,1.22-3.526l-9.882-9.884a3.108,3.108,0,0,1-.933-2.223,3.11,3.11,0,0,1,.933-2.226,3.1,3.1,0,0,1,2.216-.926,3.122,3.122,0,0,1,2.23.936l9.877,9.881a3.152,3.152,0,0,1,2.594-1.367,3.151,3.151,0,0,1,3.147,3.152v5.25a3.15,3.15,0,0,1-3.147,3.149Zm-1.051-3.149a1.047,1.047,0,0,0,1.051,1.047h5.251a1.047,1.047,0,0,0,1.047-1.047v-5.25a1.05,1.05,0,0,0-1.047-1.051,1.05,1.05,0,0,0-1.052,1.051v.189a1.053,1.053,0,0,1-.649.97,1.048,1.048,0,0,1-1.142-.226l-11.114-11.12a1.045,1.045,0,0,0-1.475,0,1.042,1.042,0,0,0-.007,1.475l11.117,11.124a1.048,1.048,0,0,1,.229,1.142,1.049,1.049,0,0,1-.97.65h-.188A1.05,1.05,0,0,0-12726.442-379.146Z" transform="translate(12780 396.999)" fill="#00ce3f"/>
</svg>
