<svg xmlns="http://www.w3.org/2000/svg" width="65.001" height="65" viewBox="0 0 65.001 65">
  <path id="Icon_Creating_a_Plan_Loss_of_Capacity" data-name="Icon_Creating a Plan_Loss of Capacity" d="M-12738.964-333.27v-6.144a1.269,1.269,0,0,1,1.27-1.269,1.27,1.27,0,0,1,1.27,1.269v6.144a1.269,1.269,0,0,1-1.27,1.269A1.269,1.269,0,0,1-12738.964-333.27Zm-15.62,0v-10.921l-2.432-2.432a14.619,14.619,0,0,1-4.017-7.522l-.684-3.452-2.646-1.527a14.546,14.546,0,0,1-6.827-8.911l-.354-1.328-7.822-4.517a1.269,1.269,0,0,1-.465-1.734,1.269,1.269,0,0,1,1.734-.465l8.279,4.78a1.264,1.264,0,0,1,.592.773l.49,1.837a12.02,12.02,0,0,0,5.644,7.366l.719.415-.1-.486a4.024,4.024,0,0,1,.63-3.074,4.027,4.027,0,0,1,2.632-1.706,4.051,4.051,0,0,1,3.689,1.252v-12.132a4.011,4.011,0,0,1,4.006-4.005,4,4,0,0,1,1.469.28,3.966,3.966,0,0,1,.5-1.929l-2.264-.77a12.085,12.085,0,0,0-7.047-.234l-3.8,1.018a1.265,1.265,0,0,1-.974-.133l-15.754-9.293a1.269,1.269,0,0,1-.448-1.738,1.269,1.269,0,0,1,1.738-.449l15.295,9.023,3.284-.88a14.62,14.62,0,0,1,8.522.282l3.316,1.129,2.671-1.542a14.544,14.544,0,0,1,11.132-1.458l1.314.354,15.625-9.42a1.27,1.27,0,0,1,1.743.432,1.27,1.27,0,0,1-.433,1.743l-16.089,9.7h0a1.266,1.266,0,0,1-.985.139l-1.836-.5a12.025,12.025,0,0,0-9.2,1.2l-.056.033a4,4,0,0,1,1.737,3.262,3.983,3.983,0,0,1,1.451-.273,4,4,0,0,1,4,4v1.088a3.97,3.97,0,0,1,1.45-.273,4,4,0,0,1,4,4v9.865l.963-.844a12.091,12.091,0,0,0,3.727-5.986l1.018-3.8a1.264,1.264,0,0,1,.595-.773l7.941-4.585a1.268,1.268,0,0,1,1.733.465,1.269,1.269,0,0,1-.464,1.734l-7.489,4.324-.882,3.291a14.629,14.629,0,0,1-4.506,7.239l-2.636,2.308v3.084a14.69,14.69,0,0,1-1.792,7.019,1.271,1.271,0,0,1-1.116.661,1.263,1.263,0,0,1-.606-.156,1.27,1.27,0,0,1-.506-1.723,12.129,12.129,0,0,0,1.481-5.8v-16.323a1.462,1.462,0,0,0-1.46-1.46,1.462,1.462,0,0,0-1.45,1.3v7.632a1.27,1.27,0,0,1-1.27,1.27,1.27,1.27,0,0,1-1.27-1.27v-12.283a1.461,1.461,0,0,0-1.46-1.46,1.463,1.463,0,0,0-1.45,1.3v12.446a1.269,1.269,0,0,1-1.27,1.27,1.27,1.27,0,0,1-1.27-1.27v-15.974a1.461,1.461,0,0,0-1.46-1.46,1.462,1.462,0,0,0-1.46,1.46v15.989a1.27,1.27,0,0,1-1.27,1.27,1.27,1.27,0,0,1-1.27-1.27v-12.276a1.468,1.468,0,0,0-1.467-1.466,1.468,1.468,0,0,0-1.466,1.466l0,17.128a1.652,1.652,0,0,1-1.472,1.659,1.653,1.653,0,0,1-1.824-1.262l-.724-2.951a1.556,1.556,0,0,0-1.761-1.2,1.508,1.508,0,0,0-.985.639,1.511,1.511,0,0,0-.236,1.151l1.437,7.247a12.085,12.085,0,0,0,3.32,6.22l2.657,2.657a1.265,1.265,0,0,1,.519,1.023v11.469a1.269,1.269,0,0,1-1.27,1.269A1.27,1.27,0,0,1-12754.584-333.27Zm15.992-10.959a1.27,1.27,0,0,1,0-1.8,1.27,1.27,0,0,1,1.8,0h0a1.271,1.271,0,0,1,0,1.8,1.267,1.267,0,0,1-.9.372A1.264,1.264,0,0,1-12738.592-344.228Z" transform="translate(12780.001 397.001)" fill="#00ce3f"/>
</svg>
