<svg xmlns="http://www.w3.org/2000/svg" width="56.521" height="63" viewBox="0 0 56.521 63">
  <path id="Icon_Creating_a_Plan_Protection" data-name="Icon_Creating a Plan_Protection" d="M-12742.38-334a4.2,4.2,0,0,1-4.2-4.2v-2.1h-10.5v2.1a4.2,4.2,0,0,1-4.2,4.2h-10.325a4.2,4.2,0,0,1-4.2-4.2v-2.206a5.256,5.256,0,0,1-4.2-5.146V-382.3a1.052,1.052,0,0,1,1.051-1.051,1.052,1.052,0,0,1,1.05,1.051v36.749a3.149,3.149,0,0,0,3.149,3.152h46.021a3.152,3.152,0,0,0,3.152-3.152v-46.2a3.149,3.149,0,0,0-3.152-3.149h-46.021a3.147,3.147,0,0,0-3.149,3.149v4.2a1.052,1.052,0,0,1-1.05,1.051,1.052,1.052,0,0,1-1.051-1.051v-4.2a5.257,5.257,0,0,1,5.25-5.25h46.021a5.255,5.255,0,0,1,5.25,5.25v46.2a5.245,5.245,0,0,1-4.375,5.163v2.189a4.2,4.2,0,0,1-4.2,4.2Zm-2.1-4.2a2.1,2.1,0,0,0,2.1,2.1h10.326a2.1,2.1,0,0,0,2.1-2.1v-2.1h-14.524Zm-29.225,0a2.1,2.1,0,0,0,2.1,2.1h10.325a2.1,2.1,0,0,0,2.1-2.1v-2.1h-14.524Zm4.023-9.45a3.148,3.148,0,0,1-3.148-3.149v-9.453a1.046,1.046,0,0,1,1.048-1.047,1.047,1.047,0,0,1,1.051,1.047v9.453a1.049,1.049,0,0,0,1.05,1.047h35.7a1.047,1.047,0,0,0,1.047-1.047v-1.051a3.151,3.151,0,0,1-3.148-3.152v-6.3a3.151,3.151,0,0,1,3.148-3.152v-8.4a3.15,3.15,0,0,1-3.148-3.149v-6.3a3.148,3.148,0,0,1,3.148-3.149V-386.5a1.05,1.05,0,0,0-1.047-1.051h-35.7a1.051,1.051,0,0,0-1.05,1.051v21a1.047,1.047,0,0,1-1.051,1.047,1.046,1.046,0,0,1-1.048-1.047v-21a3.146,3.146,0,0,1,3.148-3.149h35.7a3.148,3.148,0,0,1,3.148,3.149v1.051a3.146,3.146,0,0,1,3.148,3.149v6.3a3.149,3.149,0,0,1-3.148,3.149v8.4a3.149,3.149,0,0,1,3.148,3.152v6.3a3.149,3.149,0,0,1-3.148,3.152v1.051a3.15,3.15,0,0,1-3.148,3.149Zm35.7-13.649v6.3a1.047,1.047,0,0,0,1.047,1.051h2.1a1.05,1.05,0,0,0,1.051-1.051v-6.3a1.052,1.052,0,0,0-1.051-1.051h-2.1A1.049,1.049,0,0,0-12733.977-361.3Zm0-21v6.3a1.049,1.049,0,0,0,1.047,1.051h2.1a1.052,1.052,0,0,0,1.051-1.051v-6.3a1.052,1.052,0,0,0-1.051-1.051h-2.1A1.049,1.049,0,0,0-12733.977-382.3Zm-29.491,18.472a12.494,12.494,0,0,1,0-9.642,12.6,12.6,0,0,1,14.1-7.537,12.6,12.6,0,0,1,10.144,12.356,12.6,12.6,0,0,1-10.144,12.36,12.62,12.62,0,0,1-2.462.243A12.6,12.6,0,0,1-12763.468-363.828Zm8.871,3.257a1.049,1.049,0,0,1,.12,1.057l-.38.919a10.361,10.361,0,0,0,6.055,0l-.38-.919a1.054,1.054,0,0,1,.124-1.057,1.054,1.054,0,0,1,.979-.408,1.058,1.058,0,0,1,.836.66l.384.923a10.416,10.416,0,0,0,4.28-4.284l-.923-.381a1.045,1.045,0,0,1-.656-.835,1.047,1.047,0,0,1,.406-.983,1.045,1.045,0,0,1,1.055-.121l.923.381a10.416,10.416,0,0,0,0-6.055l-.923.381a1.054,1.054,0,0,1-1.055-.125,1.038,1.038,0,0,1-.406-.98,1.045,1.045,0,0,1,.656-.835l.923-.384a10.408,10.408,0,0,0-4.28-4.28l-.384.923a1.048,1.048,0,0,1-.836.657,1.039,1.039,0,0,1-.979-.408,1.049,1.049,0,0,1-.124-1.054l.38-.923a10.417,10.417,0,0,0-6.055,0l.38.923a1.044,1.044,0,0,1-.12,1.054,1.045,1.045,0,0,1-.983.408,1.048,1.048,0,0,1-.836-.657l-.381-.923v0a10.439,10.439,0,0,0-4.284,4.284l.923.384a1.058,1.058,0,0,1,.661.835,1.052,1.052,0,0,1-.408.98,1.058,1.058,0,0,1-1.058.125l-.919-.381a10.368,10.368,0,0,0,0,6.055l.919-.381a1.049,1.049,0,0,1,1.058.121,1.061,1.061,0,0,1,.408.983,1.058,1.058,0,0,1-.661.835l-.919.381a10.387,10.387,0,0,0,4.28,4.284l.381-.923a1.058,1.058,0,0,1,.836-.66,1.048,1.048,0,0,1,.14-.009A1.06,1.06,0,0,1-12754.6-360.572Zm-3.052-5.665a6.3,6.3,0,0,1,1.817-7.281,6.3,6.3,0,0,1,7.494-.374,6.3,6.3,0,0,1,2.54,7.062,6.3,6.3,0,0,1-6.022,4.479A6.314,6.314,0,0,1-12757.648-366.236Zm4.213-6.3a4.18,4.18,0,0,0-2.283,2.27,4.194,4.194,0,0,0,.006,3.223,4.2,4.2,0,0,0,5.487,2.27,4.2,4.2,0,0,0,2.273-5.486,4.2,4.2,0,0,0-3.883-2.6A4.182,4.182,0,0,0-12753.436-372.534Zm-15.192-6.618v-5.25a1.047,1.047,0,0,1,1.047-1.047h5.252a1.047,1.047,0,0,1,1.05,1.047,1.047,1.047,0,0,1-1.05,1.051h-4.2v4.2a1.048,1.048,0,0,1-1.052,1.051A1.047,1.047,0,0,1-12768.628-379.151Z" transform="translate(12780 397)" fill="#00ce3f"/>
</svg>
