<svg xmlns="http://www.w3.org/2000/svg" width="63.509" height="63.509" viewBox="0 0 63.509 63.509">
  <g id="Icon_Creating_a_Plan_Taxation" data-name="Icon_Creating a Plan_Taxation" transform="translate(-264.75 -120.75)">
    <g id="Group_461" data-name="Group 461" transform="translate(278.698 129.219)">
      <g id="Group_458" data-name="Group 458">
        <path id="Path_939" data-name="Path 939" d="M301.109,153a4.109,4.109,0,1,0,4.109,4.109A4.111,4.111,0,0,0,301.109,153Zm0,2.74a1.37,1.37,0,1,1-1.37,1.37A1.37,1.37,0,0,1,301.109,155.74Z" transform="translate(-297 -153)" fill="#00ce3f" stroke="#e5faeb" stroke-width="0.5" fill-rule="evenodd"/>
      </g>
      <g id="Group_459" data-name="Group 459" transform="translate(10.958 10.958)">
        <path id="Path_940" data-name="Path 940" d="M309.109,161a4.109,4.109,0,1,0,4.109,4.109A4.111,4.111,0,0,0,309.109,161Zm0,2.74a1.37,1.37,0,1,1-1.37,1.37A1.37,1.37,0,0,1,309.109,163.74Z" transform="translate(-305 -161)" fill="#00ce3f" stroke="#e5faeb" stroke-width="0.5" fill-rule="evenodd"/>
      </g>
      <g id="Group_460" data-name="Group 460" transform="translate(0.001 0.001)">
        <path id="Path_941" data-name="Path 941" d="M299.338,171.775l16.437-16.437a1.37,1.37,0,0,0-1.937-1.937L297.4,169.838a1.37,1.37,0,0,0,1.937,1.937Z" transform="translate(-297 -153)" fill="#00ce3f" stroke="#e5faeb" stroke-width="0.5" fill-rule="evenodd"/>
      </g>
    </g>
    <path id="Path_942" data-name="Path 942" d="M314.311,121H270.479A5.479,5.479,0,0,0,265,126.479v31.5a1.37,1.37,0,1,0,2.74,0v-31.5a2.739,2.739,0,0,1,2.74-2.74h39.086a5.456,5.456,0,0,0-.733,2.74v54.105a.685.685,0,0,1-.685.685H268.424a.685.685,0,0,1-.685-.685V163.462a1.37,1.37,0,0,0-2.74,0v17.122a3.424,3.424,0,0,0,3.424,3.424h39.723a3.424,3.424,0,0,0,3.424-3.424V175.79H322.53a5.479,5.479,0,0,0,5.479-5.479V132.643a3.424,3.424,0,0,0-3.424-3.424H319.79v-2.74A5.479,5.479,0,0,0,314.311,121Zm8.219,52.051a2.739,2.739,0,0,1-2.74-2.74V131.958h4.794a.685.685,0,0,1,.685.685v37.668A2.739,2.739,0,0,1,322.53,173.051Zm-8.219-49.311a2.739,2.739,0,0,0-2.74,2.74v46.572h6.212a5.456,5.456,0,0,1-.733-2.74V126.479A2.739,2.739,0,0,0,314.311,123.74Z" transform="translate(0 0)" fill="#00ce3f" stroke="#e5faeb" stroke-width="0.5" fill-rule="evenodd"/>
    <path id="Path_943" data-name="Path 943" d="M274.37,149.74h5.479a1.37,1.37,0,0,0,0-2.74H274.37a1.37,1.37,0,0,0,0,2.74Z" transform="translate(2.958 9.614)" fill="#00ce3f" stroke="#e5faeb" stroke-width="0.5" fill-rule="evenodd"/>
    <path id="Path_944" data-name="Path 944" d="M282.37,149.74h10.958a1.37,1.37,0,0,0,0-2.74H282.37a1.37,1.37,0,1,0,0,2.74Z" transform="translate(5.916 9.614)" fill="#00ce3f" stroke="#e5faeb" stroke-width="0.5" fill-rule="evenodd"/>
    <g id="Group_462" data-name="Group 462" transform="translate(275.958 162.093)">
      <path id="Path_945" data-name="Path 945" d="M274.37,149.74h21.916a1.37,1.37,0,0,0,0-2.74H274.37a1.37,1.37,0,0,0,0,2.74Z" transform="translate(-273 -147)" fill="#00ce3f" stroke="#e5faeb" stroke-width="0.5" fill-rule="evenodd"/>
    </g>
    <g id="Group_463" data-name="Group 463" transform="translate(275.958 167.572)">
      <path id="Path_946" data-name="Path 946" d="M274.37,149.74h10.958a1.37,1.37,0,0,0,0-2.74H274.37a1.37,1.37,0,0,0,0,2.74Z" transform="translate(-273 -147)" fill="#00ce3f" stroke="#e5faeb" stroke-width="0.5" fill-rule="evenodd"/>
    </g>
    <g id="Group_464" data-name="Group 464" transform="translate(292.395 167.572)">
      <path id="Path_947" data-name="Path 947" d="M286.37,149.74h5.479a1.37,1.37,0,0,0,0-2.74H286.37a1.37,1.37,0,0,0,0,2.74Z" transform="translate(-285 -147)" fill="#00ce3f" stroke="#e5faeb" stroke-width="0.5" fill-rule="evenodd"/>
    </g>
    <g id="Group_465" data-name="Group 465" transform="translate(281.437 173.051)">
      <path id="Path_948" data-name="Path 948" d="M278.37,149.74h16.437a1.37,1.37,0,0,0,0-2.74H278.37a1.37,1.37,0,0,0,0,2.74Z" transform="translate(-277 -147)" fill="#00ce3f" stroke="#e5faeb" stroke-width="0.5" fill-rule="evenodd"/>
    </g>
    <circle id="Ellipse_38" data-name="Ellipse 38" cx="1.5" cy="1.5" r="1.5" transform="translate(276 173)" fill="#00ce3f" stroke="#e5faeb" stroke-width="0.5"/>
  </g>
</svg>
